<?xml version="1.0" encoding="utf-8"?>
<!-- Generator: Adobe Illustrator 16.0.4, SVG Export Plug-In . SVG Version: 6.00 Build 0)  -->
<!DOCTYPE svg PUBLIC "-//W3C//DTD SVG 1.1//EN" "http://www.w3.org/Graphics/SVG/1.1/DTD/svg11.dtd">
<svg version="1.1" id="Layer_1" xmlns="http://www.w3.org/2000/svg" xmlns:xlink="http://www.w3.org/1999/xlink" x="0px" y="0px"
	 width="761.716px" height="368.062px" viewBox="0 0 761.716 368.062" enable-background="new 0 0 761.716 368.062"
	 xml:space="preserve">
<g>
	<g>
		<circle fill="#D5ECEA" cx="600.065" cy="71.95" r="63.554"/>
		<g>
			<linearGradient id="SVGID_1_" gradientUnits="userSpaceOnUse" x1="617.4971" y1="57.1167" x2="652.4969" y2="17.1168">
				<stop  offset="0" style="stop-color:#95D0CB"/>
				<stop  offset="1" style="stop-color:#31A59B"/>
			</linearGradient>
			<path fill="url(#SVGID_1_)" d="M600.502,8.415L600.492,0c19.084-0.021,37.033,7.391,50.542,20.87
				c13.509,13.48,20.959,31.413,20.977,50.497l-8.413,0.008c-0.017-16.835-6.59-32.657-18.507-44.548
				C633.174,14.935,617.338,8.396,600.502,8.415z"/>
			<linearGradient id="SVGID_2_" gradientUnits="userSpaceOnUse" x1="616.8525" y1="56.5542" x2="651.853" y2="16.5536">
				<stop  offset="0" style="stop-color:#95D0CB"/>
				<stop  offset="1" style="stop-color:#31A59B"/>
			</linearGradient>
			<path fill="url(#SVGID_2_)" d="M600.521,26.903l-0.009-8.414c14.146-0.016,27.45,5.478,37.463,15.468
				s15.533,23.283,15.548,37.428l-8.414,0.008c-0.013-11.896-4.657-23.076-13.077-31.479C623.61,31.51,612.421,26.89,600.521,26.903
				z"/>
			<linearGradient id="SVGID_3_" gradientUnits="userSpaceOnUse" x1="616.209" y1="55.9912" x2="651.2078" y2="15.9925">
				<stop  offset="0" style="stop-color:#95D0CB"/>
				<stop  offset="1" style="stop-color:#31A59B"/>
			</linearGradient>
			<path fill="url(#SVGID_3_)" d="M626.62,71.412c-0.017-14.363-11.715-26.036-26.076-26.02l-0.008-8.414
				c19-0.021,34.477,15.422,34.498,34.423L626.62,71.412z"/>
		</g>
	</g>
	<g>
		<linearGradient id="SVGID_4_" gradientUnits="userSpaceOnUse" x1="225.1226" y1="140.5396" x2="225.1226" y2="42.2364">
			<stop  offset="0" style="stop-color:#FF6670"/>
			<stop  offset="1" style="stop-color:#DF3034"/>
		</linearGradient>
		<rect x="215.123" y="44.476" fill="url(#SVGID_4_)" width="20" height="109.154"/>
		<linearGradient id="SVGID_5_" gradientUnits="userSpaceOnUse" x1="251.1357" y1="152.4595" x2="251.1357" y2="48.7167">
			<stop  offset="0" style="stop-color:#95D0CB"/>
			<stop  offset="1" style="stop-color:#31A59B"/>
		</linearGradient>
		<rect x="241.136" y="77.876" fill="url(#SVGID_5_)" width="20" height="75.753"/>
		<linearGradient id="SVGID_6_" gradientUnits="userSpaceOnUse" x1="199.1094" y1="152.46" x2="199.1094" y2="48.7783">
			<stop  offset="0" style="stop-color:#95D0CB"/>
			<stop  offset="1" style="stop-color:#31A59B"/>
		</linearGradient>
		<rect x="189.109" y="109.213" fill="url(#SVGID_6_)" width="20" height="44.417"/>
		<linearGradient id="SVGID_7_" gradientUnits="userSpaceOnUse" x1="277.1489" y1="152.4922" x2="277.1489" y2="51.6648">
			<stop  offset="0" style="stop-color:#95D0CB"/>
			<stop  offset="1" style="stop-color:#31A59B"/>
		</linearGradient>
		<rect x="267.149" y="95.897" fill="url(#SVGID_7_)" width="20" height="57.732"/>
		<linearGradient id="SVGID_8_" gradientUnits="userSpaceOnUse" x1="407.2158" y1="153.2661" x2="407.2158" y2="121.0393">
			<stop  offset="0" style="stop-color:#95D0CB"/>
			<stop  offset="1" style="stop-color:#31A59B"/>
		</linearGradient>
		<rect x="397.216" y="135.177" fill="url(#SVGID_8_)" width="20" height="18.453"/>
		<linearGradient id="SVGID_9_" gradientUnits="userSpaceOnUse" x1="303.1621" y1="152.416" x2="303.1621" y2="44.8118">
			<stop  offset="0" style="stop-color:#95D0CB"/>
			<stop  offset="1" style="stop-color:#31A59B"/>
		</linearGradient>
		<rect x="293.162" y="59.436" fill="url(#SVGID_9_)" width="20" height="94.194"/>
		<linearGradient id="SVGID_10_" gradientUnits="userSpaceOnUse" x1="329.1753" y1="152.5557" x2="329.1753" y2="57.357">
			<stop  offset="0" style="stop-color:#95D0CB"/>
			<stop  offset="1" style="stop-color:#31A59B"/>
		</linearGradient>
		<rect x="319.175" y="123.717" fill="url(#SVGID_10_)" width="20" height="29.913"/>
		<linearGradient id="SVGID_11_" gradientUnits="userSpaceOnUse" x1="147.083" y1="152.4727" x2="147.083" y2="49.8988">
			<stop  offset="0" style="stop-color:#95D0CB"/>
			<stop  offset="1" style="stop-color:#31A59B"/>
		</linearGradient>
		<rect x="137.083" y="94.897" fill="url(#SVGID_11_)" width="20" height="58.732"/>
		<linearGradient id="SVGID_12_" gradientUnits="userSpaceOnUse" x1="173.0962" y1="153.6733" x2="173.0962" y2="52.9233">
			<stop  offset="0" style="stop-color:#95D0CB"/>
			<stop  offset="1" style="stop-color:#31A59B"/>
		</linearGradient>
		<rect x="163.096" y="66.616" fill="url(#SVGID_12_)" width="20" height="88.194"/>
		<linearGradient id="SVGID_13_" gradientUnits="userSpaceOnUse" x1="381.2021" y1="152.7134" x2="381.2021" y2="71.4627">
			<stop  offset="0" style="stop-color:#95D0CB"/>
			<stop  offset="1" style="stop-color:#31A59B"/>
		</linearGradient>
		<rect x="371.202" y="118.822" fill="url(#SVGID_13_)" width="20" height="34.808"/>
		<linearGradient id="SVGID_14_" gradientUnits="userSpaceOnUse" x1="355.1885" y1="152.2178" x2="355.1885" y2="27.0659">
			<stop  offset="0" style="stop-color:#95D0CB"/>
			<stop  offset="1" style="stop-color:#31A59B"/>
		</linearGradient>
		<rect x="345.188" y="100.015" fill="url(#SVGID_14_)" width="20" height="53.615"/>
	</g>
	<linearGradient id="SVGID_15_" gradientUnits="userSpaceOnUse" x1="766.0254" y1="181.793" x2="106.3539" y2="181.793">
		<stop  offset="0" style="stop-color:#4752B3"/>
		<stop  offset="1" style="stop-color:#2E358B"/>
	</linearGradient>
	<polygon fill="url(#SVGID_15_)" points="672.266,153.026 103.932,153.026 103.932,210.56 672.266,210.56 672.266,248.718 
		761.716,181.791 672.266,114.869 	"/>
	<linearGradient id="SVGID_16_" gradientUnits="userSpaceOnUse" x1="325.6138" y1="260.6289" x2="658.614" y2="-25.3711">
		<stop  offset="0" style="stop-color:#DF3034"/>
		<stop  offset="0.5031" style="stop-color:#FF6670"/>
		<stop  offset="1" style="stop-color:#DF3034"/>
	</linearGradient>
	<polygon fill="url(#SVGID_16_)" points="217.312,335.168 203.169,321.025 381.233,142.96 455.364,217.093 441.222,231.235 
		381.233,171.245 	"/>
	<linearGradient id="SVGID_17_" gradientUnits="userSpaceOnUse" x1="3" y1="253.7012" x2="655.1815" y2="253.7012">
		<stop  offset="0" style="stop-color:#4752B3"/>
		<stop  offset="1" style="stop-color:#2E358B"/>
	</linearGradient>
	<polygon fill="url(#SVGID_17_)" points="89.45,282.469 657.783,282.469 657.783,224.936 89.45,224.936 89.45,186.777 0,253.705 
		89.45,320.626 	"/>
	<linearGradient id="SVGID_18_" gradientUnits="userSpaceOnUse" x1="332.1099" y1="268.1924" x2="665.1086" y2="-17.8063">
		<stop  offset="0" style="stop-color:#DF3034"/>
		<stop  offset="0.5031" style="stop-color:#FF6670"/>
		<stop  offset="1" style="stop-color:#DF3034"/>
	</linearGradient>
	<polygon fill="url(#SVGID_18_)" points="448.293,238.307 374.162,164.173 388.305,150.032 448.293,210.021 579.977,78.339 
		594.119,92.481 	"/>
	<g>
		<linearGradient id="SVGID_19_" gradientUnits="userSpaceOnUse" x1="350.2534" y1="289.3291" x2="683.2609" y2="3.3229">
			<stop  offset="0" style="stop-color:#DF3034"/>
			<stop  offset="0.5031" style="stop-color:#FF6670"/>
			<stop  offset="1" style="stop-color:#DF3034"/>
		</linearGradient>
		<polygon fill="url(#SVGID_19_)" points="599.419,108.098 612.323,59.942 564.164,72.843 		"/>
	</g>
	<linearGradient id="SVGID_20_" gradientUnits="userSpaceOnUse" x1="563.1934" y1="303.8125" x2="520.3763" y2="358.863">
		<stop  offset="0" style="stop-color:#FF6670"/>
		<stop  offset="1" style="stop-color:#DF3034"/>
	</linearGradient>
	<circle fill="url(#SVGID_20_)" cx="542.63" cy="330.25" r="37.812"/>
	<linearGradient id="SVGID_21_" gradientUnits="userSpaceOnUse" x1="608.8447" y1="253.9082" x2="577.351" y2="294.4001">
		<stop  offset="0" style="stop-color:#95D0CB"/>
		<stop  offset="1" style="stop-color:#31A59B"/>
	</linearGradient>
	<circle fill="url(#SVGID_21_)" cx="593.72" cy="273.354" r="27.812"/>
	<linearGradient id="SVGID_22_" gradientUnits="userSpaceOnUse" x1="488.9902" y1="275.2705" x2="454.6655" y2="319.4023">
		<stop  offset="0" style="stop-color:#95D0CB"/>
		<stop  offset="1" style="stop-color:#31A59B"/>
	</linearGradient>
	<circle fill="url(#SVGID_22_)" cx="472.506" cy="296.464" r="30.312"/>
</g>
</svg>
